<?xml version="1.0" standalone="no"?>
<!DOCTYPE svg PUBLIC "-//W3C//DTD SVG 20010904//EN"
 "http://www.w3.org/TR/2001/REC-SVG-20010904/DTD/svg10.dtd">
<svg version="1.0" xmlns="http://www.w3.org/2000/svg"
 width="500.000000pt" height="500.000000pt" viewBox="0 0 500.000000 500.000000"
 preserveAspectRatio="xMidYMid meet">

<g transform="translate(0.000000,500.000000) scale(0.100000,-0.100000)"
fill="#000000" stroke="none">
<path d="M2155 3112 c-50 -32 -96 -66 -104 -75 -12 -15 -11 -17 8 -17 17 0
201 133 201 146 0 11 -23 -1 -105 -54z"/>
<path d="M2942 2165 c-17 -36 -15 -41 8 -20 20 18 27 45 12 45 -5 0 -14 -11
-20 -25z"/>
<path d="M4210 1800 c-13 -9 -13 -10 0 -10 8 0 22 5 30 10 13 9 13 10 0 10 -8
0 -22 -5 -30 -10z"/>
</g>
</svg>
